<mxfile host="app.diagrams.net" modified="2024-05-28T01:55:58.291Z" agent="Mozilla/5.0 (Windows NT 10.0; Win64; x64) AppleWebKit/537.36 (KHTML, like Gecko) Chrome/125.0.0.0 Safari/537.36" etag="dla7mL8SlwKhubLYW77G" version="24.4.8" type="github">
  <diagram name="Page-1" id="e8d55kIHp1mGuOhiYD2n">
    <mxGraphModel dx="1434" dy="746" grid="1" gridSize="10" guides="1" tooltips="1" connect="1" arrows="1" fold="1" page="1" pageScale="1" pageWidth="1100" pageHeight="850" math="0" shadow="0">
      <root>
        <mxCell id="0" />
        <mxCell id="1" parent="0" />
        <mxCell id="PWddgNiZUrnkZ5b-dUCB-10" style="edgeStyle=orthogonalEdgeStyle;rounded=0;orthogonalLoop=1;jettySize=auto;html=1;startArrow=classic;startFill=1;shape=link;fillColor=#647687;strokeColor=#314354;strokeWidth=2;" edge="1" parent="1" source="PWddgNiZUrnkZ5b-dUCB-1" target="PWddgNiZUrnkZ5b-dUCB-2">
          <mxGeometry relative="1" as="geometry" />
        </mxCell>
        <mxCell id="PWddgNiZUrnkZ5b-dUCB-11" value="1. Send Events" style="edgeLabel;html=1;align=center;verticalAlign=middle;resizable=0;points=[];" vertex="1" connectable="0" parent="PWddgNiZUrnkZ5b-dUCB-10">
          <mxGeometry x="0.1176" y="1" relative="1" as="geometry">
            <mxPoint x="-2" as="offset" />
          </mxGeometry>
        </mxCell>
        <mxCell id="PWddgNiZUrnkZ5b-dUCB-1" value="Windows 10 Client&lt;div&gt;Wazuh Agnet&lt;/div&gt;" style="fontColor=#0066CC;verticalAlign=top;verticalLabelPosition=bottom;labelPosition=center;align=center;html=1;outlineConnect=0;fillColor=#CCCCCC;strokeColor=#6881B3;gradientColor=none;gradientDirection=north;strokeWidth=2;shape=mxgraph.networks.pc;" vertex="1" parent="1">
          <mxGeometry x="350" y="470" width="100" height="70" as="geometry" />
        </mxCell>
        <mxCell id="PWddgNiZUrnkZ5b-dUCB-12" style="rounded=0;orthogonalLoop=1;jettySize=auto;html=1;entryX=0.75;entryY=1;entryDx=0;entryDy=0;shape=link;fillColor=#647687;strokeColor=#314354;strokeWidth=2;" edge="1" parent="1" source="PWddgNiZUrnkZ5b-dUCB-2" target="PWddgNiZUrnkZ5b-dUCB-3">
          <mxGeometry relative="1" as="geometry">
            <Array as="points">
              <mxPoint x="400" y="260" />
            </Array>
          </mxGeometry>
        </mxCell>
        <mxCell id="PWddgNiZUrnkZ5b-dUCB-2" value="Router" style="image;aspect=fixed;html=1;points=[];align=center;fontSize=12;image=img/lib/azure2/networking/Virtual_Router.svg;" vertex="1" parent="1">
          <mxGeometry x="366" y="300" width="68" height="68" as="geometry" />
        </mxCell>
        <mxCell id="PWddgNiZUrnkZ5b-dUCB-27" style="rounded=0;orthogonalLoop=1;jettySize=auto;html=1;exitX=0.5;exitY=0;exitDx=0;exitDy=0;entryX=0;entryY=0.75;entryDx=0;entryDy=0;shape=link;fillColor=#e51400;strokeColor=#B20000;strokeWidth=2;" edge="1" parent="1" source="PWddgNiZUrnkZ5b-dUCB-3" target="PWddgNiZUrnkZ5b-dUCB-4">
          <mxGeometry relative="1" as="geometry">
            <Array as="points">
              <mxPoint x="320" y="140" />
            </Array>
          </mxGeometry>
        </mxCell>
        <mxCell id="PWddgNiZUrnkZ5b-dUCB-3" value="Internet&lt;div&gt;&lt;br&gt;&lt;/div&gt;" style="image;aspect=fixed;perimeter=ellipsePerimeter;html=1;align=center;shadow=0;dashed=0;spacingTop=3;image=img/lib/active_directory/internet_cloud.svg;" vertex="1" parent="1">
          <mxGeometry x="375" y="166.85" width="55" height="34.65" as="geometry" />
        </mxCell>
        <mxCell id="PWddgNiZUrnkZ5b-dUCB-18" value="4. Enrich IOCS" style="edgeStyle=orthogonalEdgeStyle;rounded=0;orthogonalLoop=1;jettySize=auto;html=1;entryX=0.5;entryY=0;entryDx=0;entryDy=0;shape=link;fillColor=#008a00;strokeColor=#005700;strokeWidth=2;" edge="1" parent="1" source="PWddgNiZUrnkZ5b-dUCB-4" target="PWddgNiZUrnkZ5b-dUCB-3">
          <mxGeometry relative="1" as="geometry" />
        </mxCell>
        <mxCell id="PWddgNiZUrnkZ5b-dUCB-19" value="5. Send Alerts" style="rounded=0;orthogonalLoop=1;jettySize=auto;html=1;shape=link;fillColor=#0050ef;strokeColor=#001DBC;" edge="1" parent="1" source="PWddgNiZUrnkZ5b-dUCB-4" target="PWddgNiZUrnkZ5b-dUCB-5">
          <mxGeometry relative="1" as="geometry" />
        </mxCell>
        <mxCell id="PWddgNiZUrnkZ5b-dUCB-20" value="6. Send Email" style="rounded=0;orthogonalLoop=1;jettySize=auto;html=1;shape=link;fillColor=#fa6800;strokeColor=#C73500;strokeWidth=2;entryX=1;entryY=0.5;entryDx=0;entryDy=0;" edge="1" parent="1" source="PWddgNiZUrnkZ5b-dUCB-4" target="PWddgNiZUrnkZ5b-dUCB-3">
          <mxGeometry relative="1" as="geometry">
            <mxPoint x="430" y="190" as="targetPoint" />
            <Array as="points">
              <mxPoint x="510" y="160" />
            </Array>
          </mxGeometry>
        </mxCell>
        <mxCell id="PWddgNiZUrnkZ5b-dUCB-28" value="8.Send Response Action" style="edgeStyle=orthogonalEdgeStyle;rounded=0;orthogonalLoop=1;jettySize=auto;html=1;entryX=0.25;entryY=0;entryDx=0;entryDy=0;shape=link;fillColor=#e51400;strokeColor=#B20000;strokeWidth=2;" edge="1" parent="1">
          <mxGeometry x="-0.0006" relative="1" as="geometry">
            <mxPoint x="373.00012597663385" y="55.799999999999955" as="sourcePoint" />
            <mxPoint x="171.7482776657805" y="171.6853470822257" as="targetPoint" />
            <mxPoint as="offset" />
          </mxGeometry>
        </mxCell>
        <mxCell id="PWddgNiZUrnkZ5b-dUCB-4" value="Shuffle" style="image;aspect=fixed;perimeter=ellipsePerimeter;html=1;align=center;shadow=0;dashed=0;spacingTop=3;image=img/lib/active_directory/internet_cloud.svg;" vertex="1" parent="1">
          <mxGeometry x="375" y="40" width="50" height="31.5" as="geometry" />
        </mxCell>
        <mxCell id="PWddgNiZUrnkZ5b-dUCB-5" value="The Hive" style="image;aspect=fixed;perimeter=ellipsePerimeter;html=1;align=center;shadow=0;dashed=0;spacingTop=3;image=img/lib/active_directory/internet_cloud.svg;" vertex="1" parent="1">
          <mxGeometry x="640" y="170" width="50" height="31.5" as="geometry" />
        </mxCell>
        <mxCell id="PWddgNiZUrnkZ5b-dUCB-15" value="2. Receive Events" style="edgeStyle=orthogonalEdgeStyle;rounded=0;orthogonalLoop=1;jettySize=auto;html=1;entryX=0;entryY=0.5;entryDx=0;entryDy=0;shape=link;" edge="1" parent="1" source="PWddgNiZUrnkZ5b-dUCB-6" target="PWddgNiZUrnkZ5b-dUCB-3">
          <mxGeometry relative="1" as="geometry" />
        </mxCell>
        <mxCell id="PWddgNiZUrnkZ5b-dUCB-17" value="3. Send Alerts" style="rounded=0;orthogonalLoop=1;jettySize=auto;html=1;entryX=0;entryY=1;entryDx=0;entryDy=0;shape=link;fillColor=#0050ef;strokeColor=#001DBC;" edge="1" parent="1" source="PWddgNiZUrnkZ5b-dUCB-6">
          <mxGeometry relative="1" as="geometry">
            <mxPoint x="232.15538480306122" y="148.31239099094546" as="sourcePoint" />
            <mxPoint x="380.8965517241379" y="60.00206896551721" as="targetPoint" />
          </mxGeometry>
        </mxCell>
        <mxCell id="PWddgNiZUrnkZ5b-dUCB-6" value="Wazuh Manager" style="image;aspect=fixed;perimeter=ellipsePerimeter;html=1;align=center;shadow=0;dashed=0;spacingTop=3;image=img/lib/active_directory/internet_cloud.svg;" vertex="1" parent="1">
          <mxGeometry x="160" y="170" width="50" height="31.5" as="geometry" />
        </mxCell>
        <mxCell id="PWddgNiZUrnkZ5b-dUCB-7" style="edgeStyle=orthogonalEdgeStyle;rounded=0;orthogonalLoop=1;jettySize=auto;html=1;exitX=0.5;exitY=1;exitDx=0;exitDy=0;" edge="1" parent="1" source="PWddgNiZUrnkZ5b-dUCB-4" target="PWddgNiZUrnkZ5b-dUCB-4">
          <mxGeometry relative="1" as="geometry" />
        </mxCell>
        <mxCell id="PWddgNiZUrnkZ5b-dUCB-22" value="7, Send &amp;amp; Receive Email" style="rounded=0;orthogonalLoop=1;jettySize=auto;html=1;entryX=1;entryY=1;entryDx=0;entryDy=0;shape=link;fillColor=#fa6800;strokeColor=#C73500;strokeWidth=2;" edge="1" parent="1" source="PWddgNiZUrnkZ5b-dUCB-9" target="PWddgNiZUrnkZ5b-dUCB-3">
          <mxGeometry relative="1" as="geometry" />
        </mxCell>
        <mxCell id="PWddgNiZUrnkZ5b-dUCB-23" value="*8. Send Response Action" style="rounded=0;orthogonalLoop=1;jettySize=auto;html=1;entryX=0.75;entryY=1;entryDx=0;entryDy=0;fillColor=#e51400;strokeColor=#B20000;strokeWidth=2;shape=link;" edge="1" parent="1" source="PWddgNiZUrnkZ5b-dUCB-9" target="PWddgNiZUrnkZ5b-dUCB-3">
          <mxGeometry relative="1" as="geometry">
            <Array as="points">
              <mxPoint x="480" y="310" />
            </Array>
          </mxGeometry>
        </mxCell>
        <mxCell id="PWddgNiZUrnkZ5b-dUCB-9" value="SOC Analyst" style="fontColor=#0066CC;verticalAlign=top;verticalLabelPosition=bottom;labelPosition=center;align=center;html=1;outlineConnect=0;fillColor=#CCCCCC;strokeColor=#6881B3;gradientColor=none;gradientDirection=north;strokeWidth=2;shape=mxgraph.networks.pc;" vertex="1" parent="1">
          <mxGeometry x="690" y="330" width="100" height="70" as="geometry" />
        </mxCell>
        <mxCell id="PWddgNiZUrnkZ5b-dUCB-26" style="edgeStyle=orthogonalEdgeStyle;rounded=0;orthogonalLoop=1;jettySize=auto;html=1;exitX=0.5;exitY=1;exitDx=0;exitDy=0;" edge="1" parent="1" source="PWddgNiZUrnkZ5b-dUCB-3" target="PWddgNiZUrnkZ5b-dUCB-3">
          <mxGeometry relative="1" as="geometry" />
        </mxCell>
        <mxCell id="PWddgNiZUrnkZ5b-dUCB-29" value="8. Perform Responsive Action" style="edgeStyle=orthogonalEdgeStyle;rounded=0;orthogonalLoop=1;jettySize=auto;html=1;entryX=0;entryY=0.85;entryDx=0;entryDy=0;entryPerimeter=0;fillColor=#e51400;strokeColor=#B20000;shape=link;strokeWidth=2;exitX=1;exitY=0.25;exitDx=0;exitDy=0;" edge="1" parent="1" source="PWddgNiZUrnkZ5b-dUCB-6" target="PWddgNiZUrnkZ5b-dUCB-1">
          <mxGeometry relative="1" as="geometry" />
        </mxCell>
        <mxCell id="PWddgNiZUrnkZ5b-dUCB-31" style="edgeStyle=orthogonalEdgeStyle;rounded=0;orthogonalLoop=1;jettySize=auto;html=1;exitX=0.5;exitY=0;exitDx=0;exitDy=0;entryX=0.25;entryY=0;entryDx=0;entryDy=0;" edge="1" parent="1" source="PWddgNiZUrnkZ5b-dUCB-3" target="PWddgNiZUrnkZ5b-dUCB-3">
          <mxGeometry relative="1" as="geometry" />
        </mxCell>
        <mxCell id="PWddgNiZUrnkZ5b-dUCB-33" style="edgeStyle=orthogonalEdgeStyle;rounded=0;orthogonalLoop=1;jettySize=auto;html=1;" edge="1" parent="1" source="PWddgNiZUrnkZ5b-dUCB-32">
          <mxGeometry relative="1" as="geometry">
            <mxPoint x="150" y="693" as="targetPoint" />
          </mxGeometry>
        </mxCell>
        <mxCell id="PWddgNiZUrnkZ5b-dUCB-32" value="Windows 10&lt;div&gt;Send Events&lt;/div&gt;" style="text;html=1;align=center;verticalAlign=middle;resizable=0;points=[];autosize=1;strokeColor=none;fillColor=none;" vertex="1" parent="1">
          <mxGeometry x="5" y="673" width="90" height="40" as="geometry" />
        </mxCell>
        <mxCell id="PWddgNiZUrnkZ5b-dUCB-35" style="rounded=0;orthogonalLoop=1;jettySize=auto;html=1;" edge="1" parent="1" source="PWddgNiZUrnkZ5b-dUCB-34">
          <mxGeometry relative="1" as="geometry">
            <mxPoint x="450" y="690" as="targetPoint" />
          </mxGeometry>
        </mxCell>
        <mxCell id="PWddgNiZUrnkZ5b-dUCB-34" value="Wazuh Manager&lt;div&gt;Trigger alerts &amp;amp; Perform response actions&lt;/div&gt;" style="text;html=1;align=center;verticalAlign=middle;resizable=0;points=[];autosize=1;strokeColor=none;fillColor=none;" vertex="1" parent="1">
          <mxGeometry x="150" y="673" width="250" height="40" as="geometry" />
        </mxCell>
        <mxCell id="PWddgNiZUrnkZ5b-dUCB-37" style="edgeStyle=orthogonalEdgeStyle;rounded=0;orthogonalLoop=1;jettySize=auto;html=1;" edge="1" parent="1" source="PWddgNiZUrnkZ5b-dUCB-36">
          <mxGeometry relative="1" as="geometry">
            <mxPoint x="750" y="693" as="targetPoint" />
          </mxGeometry>
        </mxCell>
        <mxCell id="PWddgNiZUrnkZ5b-dUCB-39" style="edgeStyle=orthogonalEdgeStyle;rounded=0;orthogonalLoop=1;jettySize=auto;html=1;" edge="1" parent="1" source="PWddgNiZUrnkZ5b-dUCB-36">
          <mxGeometry relative="1" as="geometry">
            <mxPoint x="540" y="740" as="targetPoint" />
          </mxGeometry>
        </mxCell>
        <mxCell id="PWddgNiZUrnkZ5b-dUCB-41" style="edgeStyle=orthogonalEdgeStyle;rounded=0;orthogonalLoop=1;jettySize=auto;html=1;" edge="1" parent="1" source="PWddgNiZUrnkZ5b-dUCB-36">
          <mxGeometry relative="1" as="geometry">
            <mxPoint x="540" y="640" as="targetPoint" />
          </mxGeometry>
        </mxCell>
        <mxCell id="PWddgNiZUrnkZ5b-dUCB-36" value="Shuffle&lt;div&gt;Receive Wazuh Alerts &amp;amp; Send reponsiive action&lt;/div&gt;" style="text;html=1;align=center;verticalAlign=middle;resizable=0;points=[];autosize=1;strokeColor=none;fillColor=none;" vertex="1" parent="1">
          <mxGeometry x="400" y="673" width="280" height="40" as="geometry" />
        </mxCell>
        <mxCell id="PWddgNiZUrnkZ5b-dUCB-38" value="&lt;div&gt;Email&lt;/div&gt;&lt;div&gt;&amp;nbsp;Send email &amp;amp; responsive actions&lt;/div&gt;" style="text;html=1;align=center;verticalAlign=middle;resizable=0;points=[];autosize=1;strokeColor=none;fillColor=none;" vertex="1" parent="1">
          <mxGeometry x="725" y="680" width="200" height="40" as="geometry" />
        </mxCell>
        <mxCell id="PWddgNiZUrnkZ5b-dUCB-40" value="TheHive&lt;div&gt;Create alert in case management&lt;/div&gt;" style="text;html=1;align=center;verticalAlign=middle;resizable=0;points=[];autosize=1;strokeColor=none;fillColor=none;" vertex="1" parent="1">
          <mxGeometry x="440" y="740" width="200" height="40" as="geometry" />
        </mxCell>
        <mxCell id="PWddgNiZUrnkZ5b-dUCB-42" value="OSINT&lt;div&gt;Enrich IOCS&lt;/div&gt;" style="text;html=1;align=center;verticalAlign=middle;resizable=0;points=[];autosize=1;strokeColor=none;fillColor=none;" vertex="1" parent="1">
          <mxGeometry x="495" y="603" width="90" height="40" as="geometry" />
        </mxCell>
      </root>
    </mxGraphModel>
  </diagram>
</mxfile>
